<svg height="512pt" viewBox="0 0 512 512" width="512pt" xmlns="http://www.w3.org/2000/svg"><path d="m17.65625 273.65625h203.035156c9.75 0 17.652344 7.902344 17.652344 17.652344v203.035156c0 9.75-7.902344 17.65625-17.652344 17.65625h-203.035156c-9.75 0-17.65625-7.90625-17.65625-17.65625v-203.035156c0-9.75 7.90625-17.652344 17.65625-17.652344zm0 0" fill="#4482c3"/><path d="m291.308594 273.65625h203.035156c9.75 0 17.65625 7.902344 17.65625 17.652344v203.035156c0 9.75-7.90625 17.65625-17.65625 17.65625h-203.035156c-9.75 0-17.652344-7.90625-17.652344-17.65625v-203.035156c0-9.75 7.902344-17.652344 17.652344-17.652344zm0 0" fill="#f29c1f"/><path d="m17.65625 0h203.035156c9.75 0 17.652344 7.90625 17.652344 17.65625v203.035156c0 9.75-7.902344 17.652344-17.652344 17.652344h-203.035156c-9.75 0-17.65625-7.902344-17.65625-17.652344v-203.035156c0-9.75 7.90625-17.65625 17.65625-17.65625zm0 0" fill="#24ae5f"/><path d="m291.308594 0h203.035156c9.75 0 17.65625 7.90625 17.65625 17.65625v203.035156c0 9.75-7.90625 17.652344-17.65625 17.652344h-203.035156c-9.75 0-17.652344-7.902344-17.652344-17.652344v-203.035156c0-9.75 7.902344-17.65625 17.652344-17.65625zm0 0" fill="#955ba5"/><path d="m401.074219 325.003906 15.835937 32.105469c1.285156 2.605469 3.769532 4.414063 6.644532 4.832031l35.480468 5.144532c3.324219.484374 6.089844 2.8125 7.125 6.011718 1.039063 3.195313.171875 6.703125-2.234375 9.046875l-25.601562 24.992188c-2.082031 2.027343-3.03125 4.949219-2.542969 7.8125l6.058594 35.3125c.566406 3.308593-.796875 6.65625-3.515625 8.632812-2.71875 1.972657-6.320313 2.234375-9.292969.667969l-31.789062-16.683594c-2.574219-1.351562-5.648438-1.351562-8.21875 0l-31.683594 16.660156c-2.976563 1.558594-6.582032 1.289063-9.296875-.691406-2.714844-1.980468-4.066407-5.328125-3.492188-8.640625l6.046875-35.308593c.492188-2.863282-.457031-5.785157-2.535156-7.8125l-25.597656-24.992188c-2.410156-2.34375-3.277344-5.855469-2.238282-9.050781 1.039063-3.195313 3.800782-5.527344 7.125-6.007813l35.390626-5.105468c2.875-.417969 5.363281-2.222657 6.648437-4.828126l15.890625-32.105468c1.496094-2.988282 4.554688-4.878906 7.898438-4.875 3.34375 0 6.398437 1.890625 7.894531 4.882812zm0 0" fill="#ecf0f1"/><path d="m70.621094 60.460938v117.40625c0 3.242187 1.777344 6.21875 4.625 7.761718 2.851562 1.542969 6.316406 1.398438 9.03125-.375l89.800781-58.691406c2.496094-1.632812 4-4.410156 4-7.390625s-1.503906-5.757813-4-7.386719l-89.800781-58.714844c-2.714844-1.773437-6.179688-1.914062-9.03125-.371093-2.847656 1.539062-4.625 4.519531-4.625 7.761719zm0 0" fill="#ecf0f1"/><path d="m44.136719 344.277344h105.933593c4.875 0 8.828126 3.949218 8.828126 8.824218v70.621094c0 4.875-3.953126 8.828125-8.828126 8.828125h-105.933593c-4.875 0-8.828125-3.953125-8.828125-8.828125v-70.621094c0-4.875 3.953125-8.824218 8.828125-8.824218zm0 0" fill="#fff"/><path d="m158.898438 414.898438 32.289062 11.746093c2.707031.984375 5.722656.589844 8.082031-1.0625 2.355469-1.648437 3.761719-4.347656 3.765625-7.226562v-59.886719c-.003906-2.878906-1.410156-5.574219-3.765625-7.226562-2.359375-1.648438-5.375-2.046876-8.082031-1.0625l-32.289062 11.75zm0 0" fill="#d1d4d1"/><path d="m361.929688 180.964844c0 12.1875-9.878907 22.070312-22.066407 22.070312-12.191406 0-22.070312-9.882812-22.070312-22.070312s9.878906-22.066406 22.070312-22.066406c12.1875 0 22.066407 9.878906 22.066407 22.066406zm0 0" fill="#955ba5"/><path d="m467.863281 145.65625c0 12.1875-9.882812 22.066406-22.070312 22.066406s-22.070313-9.878906-22.070313-22.066406 9.882813-22.070312 22.070313-22.070312 22.070312 9.882812 22.070312 22.070312zm0 0" fill="#955ba5"/><g fill="#fff"><path d="m361.929688 185.378906c-4.875 0-8.828126-3.953125-8.828126-8.828125v-88.273437c0-4.875 3.953126-8.828125 8.828126-8.828125s8.828124 3.953125 8.828124 8.828125v88.273437c0 4.875-3.953124 8.828125-8.828124 8.828125zm0 0"/><path d="m339.863281 211.863281c-17.066406 0-30.898437-13.835937-30.898437-30.898437s13.832031-30.894532 30.898437-30.894532c17.0625 0 30.894531 13.832032 30.894531 30.894532s-13.832031 30.898437-30.894531 30.898437zm0-44.140625c-7.3125 0-13.242187 5.929688-13.242187 13.242188s5.929687 13.242187 13.242187 13.242187 13.238281-5.929687 13.238281-13.242187-5.925781-13.242188-13.238281-13.242188zm0 0"/><path d="m467.863281 150.070312c-4.875 0-8.828125-3.953124-8.828125-8.828124v-88.277344c0-4.875 3.953125-8.828125 8.828125-8.828125s8.828125 3.953125 8.828125 8.828125v88.277344c0 4.875-3.953125 8.828124-8.828125 8.828124zm0 0"/><path d="m445.792969 176.550781c-17.0625 0-30.894531-13.832031-30.894531-30.894531 0-17.066406 13.832031-30.898438 30.894531-30.898438s30.898437 13.832032 30.898437 30.898438c0 17.0625-13.835937 30.894531-30.898437 30.894531zm0-44.136719c-7.3125 0-13.242188 5.929688-13.242188 13.242188s5.929688 13.242188 13.242188 13.242188 13.242187-5.929688 13.242187-13.242188-5.929687-13.242188-13.242187-13.242188zm0 0"/><path d="m361.929688 114.757812c-4.875 0-8.828126-3.953124-8.828126-8.828124v-28.945313c-.007812-7.605469 4.855469-14.363281 12.070313-16.769531l88.273437-29.425782c5.386719-1.796874 11.3125-.890624 15.917969 2.429688s7.332031 8.65625 7.328125 14.335938v23.066406c0 3.800781-2.433594 7.175781-6.039062 8.378906l-105.933594 35.308594c-.898438.296875-1.839844.449218-2.789062.449218zm97.105468-67.203124-88.277344 29.429687v16.703125l88.277344-29.429688zm0 0"/></g><path d="m88.277344 406.070312h-17.65625c-4.875 0-8.828125-3.953124-8.828125-8.828124s3.953125-8.828126 8.828125-8.828126h17.65625c4.875 0 8.824218 3.953126 8.824218 8.828126s-3.949218 8.828124-8.824218 8.828124zm0 0" fill="#95a5a5"/><path d="m123.585938 406.070312c-.589844-.019531-1.179688-.078124-1.765626-.179687-.554687-.09375-1.089843-.273437-1.589843-.527344-.5625-.195312-1.097657-.460937-1.585938-.796875-.464843-.324218-.90625-.679687-1.324219-1.058594-1.613281-1.691406-2.527343-3.929687-2.5625-6.265624.015626-1.15625.253907-2.292969.707032-3.355469.449218-1.070313 1.074218-2.054688 1.855468-2.914063l1.324219-1.058594c.488281-.332031 1.023438-.601562 1.585938-.792968.5-.257813 1.035156-.433594 1.589843-.53125 2.90625-.535156 5.890626.351562 8.035157 2.382812.777343.859375 1.40625 1.84375 1.851562 2.914063.453125 1.0625.691407 2.199219.707031 3.355469.023438 2.347656-.898437 4.605468-2.558593 6.265624-1.660157 1.664063-3.921875 2.585938-6.269531 2.5625zm0 0" fill="#95a5a5"/></svg>