<svg height="512pt" viewBox="0 -93 512.01473 512" width="512pt" xmlns="http://www.w3.org/2000/svg"><path d="m494.34375 105.9375h-34.074219l9.359375-30.101562c1.621094-5.351563.621094-11.15625-2.699218-15.65625-3.320313-4.503907-8.570313-7.175782-14.164063-7.207032h-55.523437v-35.308594c0-9.753906-7.90625-17.6562495-17.65625-17.6562495h-142.757813c-4.683594 0-9.171875 1.8593755-12.484375 5.1718755l-16.136719 16.136718c-3.308593 3.3125-7.800781 5.171875-12.480469 5.171875h-178.070312c-9.75 0-17.65625 7.90625-17.65625 17.65625v264.828125c0 9.75 7.90625 17.65625 17.65625 17.65625h361.929688c9.75 0 17.65625-7.90625 17.65625-17.65625l112.199218-176.199218c3.316406-5.453126 3.4375-12.273438.304688-17.835938-3.128906-5.5625-9.019532-9.003906-15.402344-9zm0 0" fill="#285680"/><path d="m397.242188 17.664062v291.308594c0 9.75-7.90625 17.65625-17.65625 17.65625h-361.929688c-9.75 0-17.65625-7.90625-17.65625-17.65625v-264.828125c0-9.75 7.90625-17.65625 17.65625-17.65625h178.070312c4.679688 0 9.171876-1.859375 12.480469-5.171875l16.136719-16.136718c3.3125-3.3125 7.800781-5.1718755 12.484375-5.1718755h142.757813c9.75 0 17.65625 7.9023435 17.65625 17.6562495zm0 0" fill="#90bae1"/><path d="m397.242188 308.972656 63.027343-203.035156 9.359375-30.101562c1.621094-5.351563.621094-11.15625-2.699218-15.65625-3.320313-4.503907-8.570313-7.175782-14.164063-7.207032h-55.523437zm0 0" fill="#2980ba"/><g fill="#894b9d"><path d="m114.757812 105.9375h167.726563c9.75 0 17.652344 7.90625 17.652344 17.65625v105.929688c0 9.75-7.902344 17.65625-17.652344 17.65625h-167.726563c-9.75 0-17.65625-7.90625-17.65625-17.65625v-105.929688c0-9.75 7.90625-17.65625 17.65625-17.65625zm0 0"/><path d="m61.792969 141.25c-4.875 0-8.828125-3.953125-8.828125-8.828125v-17.65625c0-4.875 3.953125-8.828125 8.828125-8.828125s8.828125 3.953125 8.828125 8.828125v17.65625c0 4.875-3.953125 8.828125-8.828125 8.828125zm0 0"/><path d="m61.792969 194.214844c-4.875 0-8.828125-3.953125-8.828125-8.828125v-17.65625c0-4.875 3.953125-8.828125 8.828125-8.828125s8.828125 3.953125 8.828125 8.828125v17.65625c0 4.875-3.953125 8.828125-8.828125 8.828125zm0 0"/><path d="m61.792969 247.179688c-4.875 0-8.828125-3.953126-8.828125-8.828126v-17.65625c0-4.875 3.953125-8.824218 8.828125-8.824218s8.828125 3.949218 8.828125 8.824218v17.65625c0 4.875-3.953125 8.828126-8.828125 8.828126zm0 0"/><path d="m335.449219 141.25c-4.875 0-8.828125-3.953125-8.828125-8.828125v-17.65625c0-4.875 3.953125-8.828125 8.828125-8.828125s8.828125 3.953125 8.828125 8.828125v17.65625c0 4.875-3.953125 8.828125-8.828125 8.828125zm0 0"/><path d="m335.449219 194.214844c-4.875 0-8.828125-3.953125-8.828125-8.828125v-17.65625c0-4.875 3.953125-8.828125 8.828125-8.828125s8.828125 3.953125 8.828125 8.828125v17.65625c0 4.875-3.953125 8.828125-8.828125 8.828125zm0 0"/><path d="m335.449219 247.179688c-4.875 0-8.828125-3.953126-8.828125-8.828126v-17.65625c0-4.875 3.953125-8.824218 8.828125-8.824218s8.828125 3.949218 8.828125 8.824218v17.65625c0 4.875-3.953125 8.828126-8.828125 8.828126zm0 0"/></g><path d="m176.550781 149.042969v55.03125c0 1.589843.855469 3.058593 2.238281 3.839843 1.382813.785157 3.082032.765626 4.445313-.050781l45.902344-27.515625c1.332031-.796875 2.148437-2.238281 2.148437-3.789062 0-1.550782-.816406-2.988282-2.148437-3.785156l-45.859375-27.515626c-1.363282-.84375-3.078125-.875-4.476563-.089843-1.398437.789062-2.257812 2.273437-2.25 3.875zm0 0" fill="#ecf0f1"/></svg>